<svg width="110" height="92" viewBox="0 0 110 92" fill="none" xmlns="http://www.w3.org/2000/svg">
<g clip-path="url(#clip0_141_589)">
<path d="M50.8418 34.1882H4.2915V0H50.8418V34.1882ZM6.13955 32.3632H48.9938V1.82499H6.13955V32.3632Z" fill="white"/>
<path d="M95.2361 34.1882H48.8501V0H95.2361V34.1882ZM50.6981 32.3632H93.3881V1.82499H50.6981V32.3632Z" fill="white"/>
<path d="M31.8892 17.2765C32.4642 17.4387 32.9775 17.6821 33.4498 18.0065C33.9221 18.331 34.3328 18.696 34.6613 19.1421C35.0104 19.5882 35.2773 20.0748 35.4621 20.6021C35.6675 21.1293 35.7701 21.6971 35.7701 22.3054C35.7701 23.0354 35.6264 23.7248 35.3389 24.3534C35.0514 24.982 34.6818 25.5498 34.189 26.0162C33.6962 26.4826 33.1418 26.8679 32.4847 27.1315C31.8276 27.3951 31.1295 27.537 30.3903 27.537H22.7927H22.6695C21.9508 27.5168 21.2732 27.3748 20.6367 27.1112C20.0001 26.8476 19.4457 26.4623 18.9734 25.9959C18.5011 25.5295 18.1315 24.982 17.8441 24.3737C17.5566 23.7654 17.4128 23.0962 17.4128 22.3865H19.4868C19.4868 22.8123 19.5689 23.2179 19.7537 23.6032C19.9385 23.9884 20.1644 24.3129 20.4724 24.6171C20.7599 24.9009 21.1089 25.1443 21.4991 25.3065C21.8892 25.4687 22.3204 25.5498 22.7722 25.5498H30.2465V25.5295C30.2876 25.5295 30.3081 25.5295 30.3081 25.5498C30.3081 25.5498 30.3492 25.5701 30.3697 25.5701C30.8215 25.5701 31.2527 25.489 31.6634 25.3268C32.074 25.1646 32.4231 24.9212 32.7106 24.6171C32.9981 24.3129 33.2445 23.9682 33.4293 23.5829C33.6141 23.1976 33.6962 22.7718 33.6962 22.3257C33.6962 22.2851 33.6962 22.2648 33.6757 22.2446V22.1837V22.1026V22.0823V22.0621V22.0012V21.9809V21.9607V21.8998C33.6551 21.8796 33.6551 21.8593 33.6551 21.839C33.6551 21.7579 33.6551 21.7173 33.6346 21.6971V21.6362V21.6159C33.6346 21.5957 33.6346 21.5957 33.6141 21.5957C33.6141 21.5957 33.5935 21.5957 33.5935 21.5754V21.4943L33.573 21.474V21.4132C33.573 21.3929 33.573 21.3726 33.5525 21.3523C33.5525 21.3118 33.5525 21.2915 33.5319 21.2915C33.5319 21.2915 33.5114 21.2509 33.5114 21.2307C33.4909 21.2307 33.4909 21.2307 33.4909 21.2104C33.4909 21.1901 33.4909 21.1698 33.4703 21.1698C33.4703 21.1698 33.4498 21.1293 33.4498 21.109C33.4293 21.109 33.4293 21.109 33.4293 21.0887V21.0685C33.4087 21.0482 33.4087 21.0279 33.4087 21.0076C33.3882 20.9873 33.3882 20.9671 33.3882 20.9468C33.3677 20.9265 33.3677 20.9062 33.3677 20.886C33.3471 20.8454 33.3266 20.8251 33.3061 20.7846C33.2855 20.7643 33.265 20.7237 33.2445 20.6832L33.2239 20.6629V20.6426L33.1623 20.5818L33.1418 20.521L33.1213 20.4601L33.0391 20.379L32.9775 20.3182C32.9775 20.2979 32.9775 20.2776 32.957 20.2573L32.8954 20.1965L32.8338 20.1357L32.8133 20.0748C32.7927 20.0748 32.7927 20.0748 32.7927 20.0546C32.7927 20.0546 32.7927 20.0343 32.7722 20.0343C32.7517 20.014 32.7311 19.9937 32.7311 19.9735C32.7311 19.9532 32.69 19.9329 32.6695 19.9126L32.649 19.8923L32.5874 19.8315C32.5668 19.8315 32.5668 19.8315 32.5668 19.8112C32.5668 19.8112 32.5668 19.791 32.5463 19.791L32.4847 19.7301L32.4231 19.7098C32.382 19.6693 32.341 19.649 32.2999 19.6287L32.2383 19.6085C32.2383 19.5882 32.2178 19.5882 32.1767 19.5882V19.5679L32.1151 19.5476C32.0946 19.5476 32.0946 19.5476 32.0946 19.5273C32.0946 19.5273 32.0946 19.5071 32.074 19.5071C32.033 19.4665 31.9919 19.4462 31.9508 19.4462C31.8687 19.4057 31.8276 19.3854 31.8071 19.3854C31.7866 19.3651 31.766 19.3651 31.7455 19.3651C31.725 19.3448 31.7044 19.3448 31.6839 19.3448C31.6634 19.3246 31.6428 19.3246 31.6223 19.3246H31.6018C31.5812 19.3043 31.5607 19.3043 31.5402 19.3043C31.4991 19.284 31.4785 19.284 31.4785 19.284C31.4785 19.284 31.4375 19.284 31.4169 19.2637C31.3964 19.2637 31.3759 19.2637 31.3553 19.2435C31.3348 19.2435 31.3143 19.2232 31.2937 19.2232H31.2116V19.2029H31.15C30.8009 19.1015 30.2465 18.9798 29.4868 18.8176C28.727 18.6554 27.8851 18.4932 26.9816 18.331C26.8379 18.2904 26.6736 18.2701 26.5299 18.2498C26.3861 18.2296 26.2219 18.2093 26.0781 18.1687C25.8112 18.1282 25.5443 18.0876 25.2773 18.0268C25.0104 17.966 24.7434 17.9254 24.4765 17.8848C24.456 17.8848 24.4354 17.8848 24.4354 17.8646C24.4354 17.8646 24.4149 17.8443 24.3944 17.8443C24.3122 17.8443 24.2301 17.824 24.1069 17.7835H24.0248H23.9631C23.9426 17.7632 23.9221 17.7632 23.881 17.7632C23.8399 17.7632 23.8194 17.7632 23.7989 17.7429C23.7783 17.7429 23.7578 17.7226 23.7167 17.7226C23.6757 17.7226 23.6551 17.7226 23.6346 17.7024H23.5114C23.3061 17.6618 23.1213 17.6415 22.9365 17.601C22.7722 17.5807 22.6079 17.5401 22.4642 17.4996C22.2999 17.459 22.1356 17.4387 21.9919 17.4185C21.8482 17.3982 21.725 17.3779 21.6428 17.3576C21.5196 17.3373 21.4375 17.3171 21.3553 17.2968C20.7804 17.1549 20.2671 16.9115 19.7948 16.5871C19.3225 16.2626 18.9118 15.8976 18.5833 15.4515C18.2342 15.0054 17.9673 14.5187 17.7825 13.9712C17.5771 13.4238 17.4744 12.856 17.4744 12.2679C17.4744 11.5582 17.6182 10.889 17.8851 10.2401C18.1521 9.61154 18.5422 9.04376 19.0145 8.57738C19.4868 8.11099 20.0412 7.74599 20.6777 7.4621C21.3143 7.17821 21.9919 7.03627 22.7311 7.01599H22.8543H30.4519H30.7599C31.4375 7.05655 32.074 7.19849 32.6695 7.48238C33.265 7.74599 33.7783 8.11099 34.2096 8.53682C34.6613 8.96265 35.0104 9.4696 35.2978 10.0374C35.5853 10.6051 35.7496 11.2135 35.8112 11.8421H33.7373C33.6757 11.4771 33.5525 11.1121 33.3882 10.7674C33.2034 10.4226 32.9775 10.1388 32.7106 9.87515C32.4436 9.63182 32.1151 9.42904 31.766 9.26682C31.4169 9.12487 31.0473 9.02349 30.6367 9.02349H30.5545H30.4313H30.2876H22.957H22.8133H22.69C22.2588 9.04376 21.8482 9.14515 21.458 9.30737C21.0679 9.4696 20.7393 9.71293 20.4519 10.0171C20.1644 10.3213 19.9385 10.666 19.7742 11.031C19.61 11.4163 19.5278 11.8218 19.5278 12.2476V12.3288V12.4099V12.4707V12.5315V12.5721V12.6329V12.6532L19.5484 12.6735V12.7343V12.7749V12.8357C19.5689 12.856 19.5689 12.8763 19.5689 12.8965V12.9574V12.9776L19.5894 12.9979V13.0588V13.079L19.61 13.0993V13.1601C19.6305 13.1804 19.6305 13.2007 19.6305 13.221C19.6305 13.2413 19.6305 13.2615 19.651 13.2615C19.651 13.2615 19.6716 13.2818 19.6716 13.3021C19.6921 13.3426 19.7126 13.3629 19.7126 13.4035C19.7126 13.4238 19.7332 13.4643 19.7537 13.5049C19.7537 13.5454 19.7537 13.5657 19.7742 13.586C19.7742 13.6063 19.7742 13.6265 19.7948 13.6468C19.7948 13.6671 19.7948 13.6874 19.8153 13.6874C19.8153 13.6874 19.8358 13.7076 19.8358 13.7279L19.8564 13.7887C19.8769 13.7887 19.8769 13.809 19.8769 13.8496H19.8974C19.8974 13.8901 19.8974 13.9104 19.918 13.9104V13.9307L19.9385 13.951L19.959 13.9712V13.9915C19.9796 14.0118 19.9796 14.0321 19.9796 14.0524H20.0001C20.0001 14.0929 20.0001 14.1132 20.0206 14.1132L20.0822 14.174V14.1943L20.1028 14.2551L20.1644 14.316L20.2876 14.4376L20.4108 14.5796C20.4313 14.5796 20.4313 14.5796 20.4313 14.5999C20.4313 14.5999 20.4313 14.6201 20.4519 14.6201L20.5135 14.681L20.5751 14.7418L20.6367 14.7621C20.6367 14.7824 20.6367 14.7824 20.6572 14.7824V14.8026C20.6777 14.8026 20.6983 14.8026 20.7188 14.8229L20.7393 14.8432H20.7599C20.7599 14.8635 20.7599 14.8635 20.7804 14.8635L20.8009 14.8837L20.8215 14.904C20.842 14.904 20.8625 14.904 20.8831 14.9243C20.9036 14.9243 20.9036 14.9243 20.9036 14.9446C20.9036 14.9446 20.9036 14.9649 20.9241 14.9649L21.2732 15.1676C21.3143 15.1676 21.3553 15.1879 21.3964 15.2285C21.4375 15.2285 21.458 15.2285 21.4785 15.2487H21.5402L21.5607 15.269H21.6223C21.6428 15.2893 21.6634 15.2893 21.6839 15.2893H21.7044C21.7044 15.3096 21.725 15.3096 21.766 15.3096C21.7866 15.3096 21.8071 15.3096 21.8276 15.3299H21.8482H21.9098L21.9303 15.3501H21.9919C22.033 15.3501 22.0535 15.3501 22.074 15.3704H22.1356C22.1767 15.3704 22.1972 15.3704 22.2178 15.3907H22.2999H22.3615H22.382C22.4026 15.3907 22.5258 15.411 22.7517 15.4515C22.9775 15.4921 23.265 15.5326 23.6141 15.5935C23.9631 15.6543 24.3738 15.7151 24.8461 15.7962C25.3184 15.8774 25.8112 15.9585 26.3245 16.0396C26.5093 16.0801 26.6531 16.1004 26.7147 16.1207C27.6182 16.2626 28.5217 16.4451 29.4457 16.6276C30.4724 16.8912 31.2527 17.0737 31.8892 17.2765Z" fill="white"/>
<path d="M31.8892 17.2765C32.4642 17.4387 32.9775 17.6821 33.4498 18.0065C33.9221 18.331 34.3328 18.696 34.6613 19.1421C35.0104 19.5882 35.2773 20.0748 35.4621 20.6021C35.6675 21.1293 35.7701 21.6971 35.7701 22.3054C35.7701 23.0354 35.6264 23.7248 35.3389 24.3534C35.0514 24.9821 34.6818 25.5498 34.189 26.0162C33.6962 26.4826 33.1418 26.8679 32.4847 27.1315C31.8276 27.3951 31.1295 27.537 30.3903 27.537H22.7927H22.6695C21.9508 27.5168 21.2732 27.3748 20.6367 27.1112C20.0001 26.8476 19.4457 26.4623 18.9734 25.9959C18.5011 25.5295 18.1315 24.9821 17.8441 24.3737C17.5566 23.7654 17.4128 23.0962 17.4128 22.3865H19.4868C19.4868 22.8123 19.5689 23.2179 19.7537 23.6032C19.9385 23.9884 20.1644 24.3129 20.4724 24.6171C20.7599 24.9009 21.1089 25.1443 21.4991 25.3065C21.8892 25.4687 22.3204 25.5498 22.7722 25.5498H30.2465V25.5295C30.2876 25.5295 30.3081 25.5295 30.3081 25.5498C30.3081 25.5498 30.3492 25.5701 30.3697 25.5701C30.8215 25.5701 31.2527 25.489 31.6634 25.3268C32.074 25.1646 32.4231 24.9212 32.7106 24.6171C32.9981 24.3129 33.2445 23.9682 33.4293 23.5829C33.6141 23.1976 33.6962 22.7718 33.6962 22.3257C33.6962 22.2851 33.6962 22.2648 33.6757 22.2446V22.1837V22.1026V22.0823V22.0621V22.0012V21.9809V21.9607V21.8998C33.6551 21.8796 33.6551 21.8593 33.6551 21.839C33.6551 21.7579 33.6551 21.7173 33.6346 21.6971V21.6362V21.6159C33.6346 21.5957 33.6346 21.5957 33.6141 21.5957C33.6141 21.5957 33.5935 21.5957 33.5935 21.5754V21.4943L33.573 21.474V21.4132C33.573 21.3929 33.573 21.3726 33.5525 21.3523C33.5525 21.3118 33.5525 21.2915 33.5319 21.2915C33.5319 21.2915 33.5114 21.2509 33.5114 21.2307C33.4909 21.2307 33.4909 21.2307 33.4909 21.2104C33.4909 21.1901 33.4909 21.1698 33.4703 21.1698C33.4703 21.1698 33.4498 21.1293 33.4498 21.109C33.4293 21.109 33.4293 21.109 33.4293 21.0887V21.0685C33.4087 21.0482 33.4087 21.0279 33.4087 21.0076C33.3882 20.9873 33.3882 20.9671 33.3882 20.9468C33.3677 20.9265 33.3677 20.9062 33.3677 20.886C33.3471 20.8454 33.3266 20.8251 33.3061 20.7846C33.2855 20.7643 33.265 20.7237 33.2445 20.6832L33.2239 20.6629V20.6426L33.1623 20.5818L33.1418 20.521L33.1213 20.4601L33.0391 20.379L32.9775 20.3182C32.9775 20.2979 32.9775 20.2776 32.957 20.2573L32.8954 20.1965L32.8338 20.1357L32.8133 20.0748C32.7927 20.0748 32.7927 20.0748 32.7927 20.0546C32.7927 20.0546 32.7927 20.0343 32.7722 20.0343C32.7517 20.014 32.7311 19.9937 32.7311 19.9735C32.7311 19.9532 32.69 19.9329 32.6695 19.9126L32.649 19.8923L32.5874 19.8315C32.5668 19.8315 32.5668 19.8315 32.5668 19.8112C32.5668 19.8112 32.5668 19.791 32.5463 19.791L32.4847 19.7301L32.4231 19.7098C32.382 19.6693 32.341 19.649 32.2999 19.6287L32.2383 19.6085C32.2383 19.5882 32.2178 19.5882 32.1767 19.5882V19.5679L32.1151 19.5476C32.0946 19.5476 32.0946 19.5476 32.0946 19.5273C32.0946 19.5273 32.0946 19.5071 32.074 19.5071C32.033 19.4665 31.9919 19.4462 31.9508 19.4462C31.8687 19.4057 31.8276 19.3854 31.8071 19.3854C31.7866 19.3651 31.766 19.3651 31.7455 19.3651C31.725 19.3448 31.7044 19.3448 31.6839 19.3448C31.6634 19.3246 31.6428 19.3246 31.6223 19.3246H31.6018C31.5812 19.3043 31.5607 19.3043 31.5402 19.3043C31.4991 19.284 31.4786 19.284 31.4786 19.284C31.4786 19.284 31.4375 19.284 31.4169 19.2637C31.3964 19.2637 31.3759 19.2637 31.3553 19.2435C31.3348 19.2435 31.3143 19.2232 31.2937 19.2232H31.2116V19.2029H31.15C30.8009 19.1015 30.2465 18.9798 29.4868 18.8176C28.727 18.6554 27.8851 18.4932 26.9816 18.331C26.8379 18.2904 26.6736 18.2701 26.5299 18.2498C26.3861 18.2296 26.2219 18.2093 26.0781 18.1687C25.8112 18.1282 25.5443 18.0876 25.2773 18.0268C25.0104 17.966 24.7434 17.9254 24.4765 17.8848C24.456 17.8848 24.4354 17.8848 24.4354 17.8646C24.4354 17.8646 24.4149 17.8443 24.3944 17.8443C24.3122 17.8443 24.2301 17.824 24.1069 17.7835H24.0248H23.9631C23.9426 17.7632 23.9221 17.7632 23.881 17.7632C23.8399 17.7632 23.8194 17.7632 23.7989 17.7429C23.7783 17.7429 23.7578 17.7226 23.7167 17.7226C23.6757 17.7226 23.6551 17.7226 23.6346 17.7024H23.5114C23.3061 17.6618 23.1213 17.6415 22.9365 17.601C22.7722 17.5807 22.6079 17.5401 22.4642 17.4996C22.2999 17.459 22.1356 17.4387 21.9919 17.4185C21.8482 17.3982 21.725 17.3779 21.6428 17.3576C21.5196 17.3374 21.4375 17.3171 21.3553 17.2968C20.7804 17.1549 20.2671 16.9115 19.7948 16.5871C19.3225 16.2626 18.9118 15.8976 18.5833 15.4515C18.2342 15.0054 17.9673 14.5187 17.7825 13.9712C17.5771 13.4238 17.4744 12.856 17.4744 12.2679C17.4744 11.5582 17.6182 10.889 17.8851 10.2401C18.1521 9.61154 18.5422 9.04376 19.0145 8.57738C19.4868 8.11099 20.0412 7.74599 20.6777 7.4621C21.3143 7.17821 21.9919 7.03627 22.7311 7.01599H22.8543H30.4519H30.7599C31.4375 7.05655 32.074 7.19849 32.6695 7.48238C33.265 7.74599 33.7783 8.11099 34.2096 8.53682C34.6613 8.96265 35.0104 9.4696 35.2978 10.0374C35.5853 10.6051 35.7496 11.2135 35.8112 11.8421H33.7373C33.6757 11.4771 33.5525 11.1121 33.3882 10.7674C33.2034 10.4226 32.9775 10.1388 32.7106 9.87515C32.4436 9.63182 32.1151 9.42904 31.766 9.26682C31.4169 9.12487 31.0473 9.02349 30.6367 9.02349H30.5545H30.4313H30.2876H22.957H22.8133H22.69C22.2588 9.04376 21.8482 9.14515 21.458 9.30737C21.0679 9.4696 20.7393 9.71293 20.4519 10.0171C20.1644 10.3213 19.9385 10.666 19.7742 11.031C19.61 11.4163 19.5278 11.8218 19.5278 12.2476V12.3288V12.4099V12.4707V12.5315V12.5721V12.6329V12.6532L19.5484 12.6735V12.7343V12.7749V12.8357C19.5689 12.856 19.5689 12.8763 19.5689 12.8965V12.9574V12.9776L19.5894 12.9979V13.0588V13.079L19.61 13.0993V13.1601C19.6305 13.1804 19.6305 13.2007 19.6305 13.221C19.6305 13.2413 19.6305 13.2615 19.651 13.2615C19.651 13.2615 19.6716 13.2818 19.6716 13.3021C19.6921 13.3426 19.7126 13.3629 19.7126 13.4035C19.7126 13.4238 19.7332 13.4643 19.7537 13.5049C19.7537 13.5454 19.7537 13.5657 19.7742 13.586C19.7742 13.6063 19.7742 13.6265 19.7948 13.6468C19.7948 13.6671 19.7948 13.6874 19.8153 13.6874C19.8153 13.6874 19.8358 13.7076 19.8358 13.7279L19.8564 13.7887C19.8769 13.7887 19.8769 13.809 19.8769 13.8496H19.8974C19.8974 13.8901 19.8974 13.9104 19.918 13.9104V13.9307L19.9385 13.951L19.959 13.9712V13.9915C19.9796 14.0118 19.9796 14.0321 19.9796 14.0524H20.0001C20.0001 14.0929 20.0001 14.1132 20.0206 14.1132L20.0822 14.174V14.1943L20.1028 14.2551L20.1644 14.316L20.2876 14.4376L20.4108 14.5796C20.4313 14.5796 20.4313 14.5796 20.4313 14.5999C20.4313 14.5999 20.4313 14.6201 20.4519 14.6201L20.5135 14.681L20.5751 14.7418L20.6367 14.7621C20.6367 14.7824 20.6367 14.7824 20.6572 14.7824V14.8026C20.6777 14.8026 20.6983 14.8026 20.7188 14.8229L20.7393 14.8432H20.7599C20.7599 14.8635 20.7599 14.8635 20.7804 14.8635L20.8009 14.8837L20.8215 14.904C20.842 14.904 20.8625 14.904 20.8831 14.9243C20.9036 14.9243 20.9036 14.9243 20.9036 14.9446C20.9036 14.9446 20.9036 14.9649 20.9241 14.9649L21.2732 15.1676C21.3143 15.1676 21.3553 15.1879 21.3964 15.2285C21.4375 15.2285 21.458 15.2285 21.4785 15.2487H21.5402L21.5607 15.269H21.6223C21.6428 15.2893 21.6634 15.2893 21.6839 15.2893H21.7044C21.7044 15.3096 21.725 15.3096 21.766 15.3096C21.7866 15.3096 21.8071 15.3096 21.8276 15.3299H21.8482H21.9098L21.9303 15.3501H21.9919C22.033 15.3501 22.0535 15.3501 22.074 15.3704H22.1356C22.1767 15.3704 22.1972 15.3704 22.2178 15.3907H22.2999H22.3615H22.382C22.4026 15.3907 22.5258 15.411 22.7517 15.4515C22.9775 15.4921 23.265 15.5326 23.6141 15.5935C23.9631 15.6543 24.3738 15.7151 24.8461 15.7962C25.3184 15.8774 25.8112 15.9585 26.3245 16.0396C26.5093 16.0801 26.6531 16.1004 26.7147 16.1207C27.6182 16.2626 28.5217 16.4451 29.4457 16.6276C30.4724 16.8912 31.2527 17.0737 31.8892 17.2765Z" stroke="white" stroke-width="2" stroke-miterlimit="10"/>
<path d="M81.232 27.5981H79.1786V18.0473H65.5236V27.5981H63.4702V6.99597H65.5236V16.0196H79.1786V6.99597H81.232V27.5981Z" fill="white"/>
<path d="M81.232 27.5981H79.1786V18.0473H65.5236V27.5981H63.4702V6.99597H65.5236V16.0196H79.1786V6.99597H81.232V27.5981Z" stroke="white" stroke-width="2" stroke-miterlimit="10"/>
<path d="M12.4436 53.3506C12.8543 53.4722 13.2444 53.6344 13.5729 53.8575C13.922 54.0806 14.2095 54.3442 14.4559 54.6686C14.7023 54.9728 14.9076 55.3175 15.0514 55.7028C15.1951 56.088 15.2773 56.4733 15.2773 56.8992C15.2773 57.4061 15.1746 57.8928 14.9692 58.3389C14.7639 58.785 14.4764 59.1905 14.1274 59.515C13.7783 59.8597 13.3676 60.1233 12.8953 60.3058C12.423 60.4883 11.9097 60.5897 11.3758 60.5897H5.83167H5.74953C5.21565 60.5694 4.72284 60.468 4.27109 60.2855C3.79881 60.103 3.40867 59.8394 3.05959 59.4947C2.71052 59.1703 2.44357 58.785 2.23824 58.3389C2.0329 57.8928 1.93023 57.4264 1.93023 56.9194H3.44973C3.44973 57.2236 3.51134 57.5075 3.65507 57.7914C3.77828 58.055 3.96308 58.2983 4.16842 58.5011C4.37376 58.7039 4.6407 58.8661 4.92817 58.9878C5.21565 59.1094 5.52366 59.1703 5.8522 59.1703H11.2937V59.15C11.3142 59.15 11.3347 59.15 11.3553 59.15C11.3553 59.15 11.3758 59.15 11.4169 59.15C11.7454 59.15 12.0534 59.0891 12.3614 58.9675C12.6489 58.8458 12.9159 58.6836 13.1212 58.4808C13.3265 58.278 13.5113 58.0144 13.6345 57.7508C13.7577 57.4669 13.8399 57.183 13.8399 56.8586C13.8399 56.8383 13.8399 56.818 13.8193 56.7978V56.7572V56.7167V56.6964V56.6761V56.6355V56.6153V56.595V56.5544C13.7988 56.5342 13.7988 56.5342 13.7988 56.5139C13.7988 56.453 13.7988 56.4328 13.7783 56.4125V56.3719V56.3517C13.7783 56.3314 13.7783 56.3314 13.7577 56.3314C13.7577 56.3314 13.7372 56.3314 13.7372 56.3111V56.2705L13.7167 56.2503V56.2097C13.7167 56.1894 13.7167 56.1894 13.6961 56.1692C13.6961 56.1489 13.6961 56.1286 13.6756 56.1286C13.6756 56.1286 13.6551 56.1083 13.6551 56.088C13.6345 56.088 13.6345 56.088 13.6345 56.0678C13.6345 56.0475 13.6345 56.0475 13.614 56.0475C13.614 56.0475 13.5935 56.0272 13.5935 56.0069C13.5729 56.0069 13.5729 56.0069 13.5729 55.9867V55.9664C13.5524 55.9664 13.5524 55.9664 13.5524 55.9461C13.5319 55.9258 13.5319 55.9258 13.5319 55.9055C13.5113 55.8853 13.5113 55.8853 13.5113 55.865C13.4908 55.8447 13.4908 55.8244 13.4703 55.8042C13.4497 55.7839 13.4497 55.7636 13.4292 55.7433L13.4087 55.723V55.7028L13.3676 55.6622L13.3471 55.6217L13.3265 55.5811L13.2649 55.5203L13.2239 55.4797C13.2239 55.4594 13.2239 55.4594 13.2033 55.4392L13.1623 55.3986L13.1212 55.358L13.1007 55.3175C13.0801 55.3175 13.0801 55.3175 13.0801 55.3175C13.0801 55.3175 13.0801 55.3175 13.0596 55.3175C13.0391 55.2972 13.0391 55.2972 13.0185 55.2769C13.0185 55.2567 12.998 55.2567 12.9569 55.2364L12.9364 55.2161L12.8953 55.1755C12.8748 55.1755 12.8748 55.1755 12.8748 55.1755C12.8748 55.1755 12.8748 55.1755 12.8543 55.1755L12.8132 55.135L12.7721 55.1147C12.7516 55.0944 12.7105 55.0742 12.69 55.0539L12.6489 55.0336C12.6489 55.0133 12.6284 55.0133 12.6078 55.0133V54.9525L12.5668 54.9322C12.5462 54.9322 12.5462 54.9322 12.5462 54.9322C12.5462 54.9322 12.5462 54.9322 12.5257 54.9322C12.5052 54.9119 12.4641 54.8917 12.4436 54.8917C12.382 54.8714 12.3614 54.8511 12.3409 54.8511C12.3204 54.8308 12.3204 54.8308 12.2998 54.8308C12.2793 54.8105 12.2793 54.8105 12.2588 54.8105C12.2382 54.7903 12.2382 54.7903 12.2177 54.7903H12.1972C12.1766 54.77 12.1766 54.77 12.1561 54.77C12.1356 54.7497 12.115 54.7497 12.0945 54.7497C12.0945 54.7497 12.074 54.7497 12.0329 54.7294C12.0124 54.7294 12.0124 54.7294 11.9918 54.7294C11.9713 54.7294 11.9713 54.7294 11.9508 54.7294H11.9097V54.7092H11.8686C11.6222 54.6483 11.2115 54.5469 10.6571 54.4455C10.1027 54.3239 9.4867 54.2225 8.82961 54.1008C8.72694 54.0805 8.60374 54.0603 8.50107 54.04C8.3984 54.0197 8.2752 53.9994 8.17253 53.9792C7.98772 53.9589 7.78238 53.9183 7.59758 53.8778C7.41277 53.8372 7.20743 53.7967 7.02263 53.7764C7.0021 53.7764 7.0021 53.7764 6.98156 53.7764C6.98156 53.7764 6.96103 53.7764 6.94049 53.7764C6.87889 53.7764 6.81729 53.7561 6.73516 53.7358H6.67355H6.63249C6.61195 53.7155 6.59142 53.7155 6.57088 53.7155C6.55035 53.7155 6.52982 53.7155 6.50928 53.7155C6.48875 53.7155 6.46822 53.7155 6.44768 53.7155C6.42715 53.7155 6.40661 53.7155 6.38608 53.6953H6.30394C6.16021 53.675 6.01647 53.6547 5.89327 53.6344C5.77006 53.6142 5.64686 53.5939 5.54419 53.5736C5.42099 53.5533 5.29778 53.533 5.19511 53.5128C5.09244 53.4925 5.01031 53.4925 4.92817 53.4722C4.84604 53.4519 4.78444 53.4519 4.72284 53.4317C4.31216 53.3303 3.92201 53.1681 3.59347 52.945C3.2444 52.7219 2.95692 52.4583 2.71052 52.1339C2.46411 51.8297 2.25877 51.485 2.11503 51.0997C1.9713 50.7144 1.88916 50.3089 1.88916 49.8831C1.88916 49.3761 1.99183 48.9097 2.19717 48.4636C2.40251 48.0175 2.66945 47.6322 3.01852 47.2875C3.3676 46.9631 3.75774 46.6995 4.23002 46.4967C4.7023 46.2939 5.19511 46.1925 5.729 46.1722H5.81113H11.3553H11.5812C12.074 46.1925 12.5462 46.3142 12.9775 46.4967C13.4087 46.6792 13.7783 46.9428 14.1068 47.247C14.4354 47.5511 14.7023 47.8958 14.9076 48.3014C15.113 48.707 15.2362 49.1328 15.2773 49.5789H13.7577C13.7167 49.3153 13.6345 49.072 13.4908 48.8286C13.3676 48.5853 13.2033 48.3825 12.998 48.2C12.7926 48.0175 12.5668 47.8756 12.3204 47.7742C12.074 47.6728 11.7865 47.612 11.499 47.5917H11.4374H11.3553H11.2526H5.9138H5.81113H5.729C5.42099 47.612 5.11298 47.6728 4.82551 47.7945C4.53803 47.9161 4.29162 48.0783 4.08629 48.2811C3.88095 48.4839 3.71668 48.7272 3.59347 49.0111C3.47027 49.295 3.40867 49.5789 3.40867 49.8831V49.9439V50.0047V50.0453V50.0858V50.1061V50.1467V50.1669L3.4292 50.1872V50.2278V50.2481V50.2886C3.44974 50.3089 3.44973 50.3089 3.44973 50.3292V50.3697V50.39L3.47027 50.4103V50.4508V50.4711L3.4908 50.4914V50.5319C3.51134 50.5522 3.51134 50.5522 3.51134 50.5725C3.51134 50.5928 3.51134 50.5928 3.53187 50.5928L3.5524 50.6131C3.57294 50.6333 3.57294 50.6536 3.59347 50.6739C3.59347 50.6942 3.61401 50.7144 3.63454 50.7347C3.63454 50.755 3.63454 50.7753 3.65507 50.7956C3.65507 50.8158 3.65507 50.8158 3.67561 50.8361C3.67561 50.8564 3.67561 50.8564 3.69614 50.8564L3.71668 50.8767L3.73721 50.9172C3.75774 50.9172 3.75774 50.9375 3.75774 50.9578H3.77828C3.77828 50.9781 3.77828 50.9983 3.79881 50.9983V51.0186L3.81934 51.0389L3.83988 51.0592V51.0794C3.86041 51.0997 3.86041 51.0997 3.86041 51.12H3.88095C3.88095 51.1403 3.88095 51.1606 3.90148 51.1606L3.94255 51.2011V51.2214L3.96308 51.2619L4.00415 51.3025L4.08629 51.3836L4.16842 51.485C4.18895 51.485 4.18895 51.485 4.18895 51.485C4.18895 51.485 4.18895 51.485 4.20949 51.485L4.25056 51.5256L4.29162 51.5661L4.33269 51.5864C4.33269 51.6067 4.33269 51.6067 4.35323 51.6067V51.6269C4.37376 51.6269 4.37376 51.6269 4.39429 51.6472L4.41483 51.6675H4.43536C4.43536 51.6878 4.43536 51.6878 4.4559 51.6878L4.47643 51.7081L4.49696 51.7283C4.5175 51.7283 4.5175 51.7283 4.53803 51.7486C4.55856 51.7486 4.55856 51.7486 4.55856 51.7486C4.55856 51.7486 4.55856 51.7486 4.5791 51.7486L4.82551 51.8906C4.84604 51.8906 4.88711 51.9108 4.90764 51.9311C4.92817 51.9311 4.94871 51.9311 4.96924 51.9514H5.01031L5.03084 51.9717H5.07191C5.09245 51.9919 5.09245 51.9919 5.11298 51.9919H5.13351C5.13351 52.0122 5.15405 52.0122 5.17458 52.0122C5.19511 52.0122 5.19511 52.0122 5.21565 52.0325H5.23618H5.27725L5.29778 52.0528H5.33885C5.35939 52.0528 5.37992 52.0528 5.40045 52.0731H5.44152C5.46205 52.0731 5.48259 52.0731 5.50312 52.0933H5.56472H5.60579H5.62633C5.64686 52.0933 5.729 52.1136 5.89327 52.1339C6.05754 52.1542 6.26288 52.1947 6.52982 52.2353C6.77622 52.2758 7.08423 52.3164 7.43331 52.3772C7.78238 52.4381 8.13146 52.4989 8.50107 52.5597C8.64481 52.58 8.72694 52.6003 8.78854 52.6206C9.44563 52.7219 10.1232 52.8436 10.7803 52.9855C11.4374 53.1275 11.9713 53.2086 12.4436 53.3506Z" fill="white"/>
<path d="M31.499 54.0806H25.1335V60.6303H23.5935V46.0912H32.9775C33.5319 46.1317 34.0452 46.2534 34.5381 46.4967C35.0309 46.7198 35.4621 47.024 35.8112 47.389C36.1602 47.754 36.4477 48.1595 36.6736 48.6259C36.8789 49.0923 37.0021 49.579 37.0021 50.0859C37.0021 50.5928 36.8995 51.0592 36.7147 51.5256C36.5298 51.992 36.2424 52.3773 35.9138 52.7423C35.5648 53.087 35.1746 53.3912 34.7023 53.6345C34.2301 53.8778 33.7372 54.0198 33.2034 54.1009H31.499V54.0806ZM32.9364 52.6814C33.2855 52.6409 33.614 52.5395 33.922 52.3976C34.2301 52.2353 34.497 52.0528 34.7229 51.8298C34.9487 51.6067 35.113 51.3431 35.2567 51.0389C35.38 50.7348 35.4621 50.4306 35.4621 50.0859C35.4621 49.7412 35.4005 49.4167 35.2567 49.1126C35.113 48.8084 34.9282 48.5448 34.6818 48.3015C34.4354 48.0784 34.1479 47.8756 33.8194 47.754C33.4908 47.612 33.1418 47.5309 32.7722 47.5106H25.1541V52.6814H32.9364Z" fill="white"/>
<path d="M63.1621 60.6303H61.4989L58.542 55.1554H50.0615L47.1046 60.6303H45.4414L53.388 45.8682H53.4086H53.9014H54.2915H54.6817H55.1539H55.1745L63.1621 60.6303ZM50.8213 53.6954H57.7617L54.312 47.2876H54.2915L50.8213 53.6954Z" fill="white"/>
<path d="M73.9836 59.15H76.2423V60.5897H70.3901V59.15H72.6489V47.5309H70.3901V46.1115H76.2423V47.5309H73.9836V59.15Z" fill="white"/>
<path d="M99.4457 60.6709H97.9467L86.0371 48.1798V60.6709H84.5381V46.0709H86.0371L97.9672 58.562V46.0709H99.4662V60.6709H99.4457Z" fill="white"/>
<path d="M12.4436 53.3506C12.8543 53.4722 13.2444 53.6344 13.5729 53.8575C13.922 54.0806 14.2095 54.3442 14.4559 54.6686C14.7023 54.9728 14.9076 55.3175 15.0514 55.7028C15.1951 56.088 15.2773 56.4733 15.2773 56.8992C15.2773 57.4061 15.1746 57.8928 14.9692 58.3389C14.7639 58.785 14.4764 59.1905 14.1274 59.515C13.7783 59.8597 13.3676 60.1233 12.8953 60.3058C12.423 60.4883 11.9097 60.5897 11.3758 60.5897H5.83167H5.74953C5.21565 60.5694 4.72284 60.468 4.27109 60.2855C3.79881 60.103 3.40867 59.8394 3.05959 59.4947C2.71052 59.1703 2.44357 58.785 2.23824 58.3389C2.0329 57.8928 1.93023 57.4264 1.93023 56.9194H3.44973C3.44973 57.2236 3.51134 57.5075 3.65507 57.7914C3.77828 58.055 3.96308 58.2983 4.16842 58.5011C4.37376 58.7039 4.6407 58.8661 4.92817 58.9878C5.21565 59.1094 5.52366 59.1703 5.8522 59.1703H11.2937V59.15C11.3142 59.15 11.3347 59.15 11.3553 59.15C11.3553 59.15 11.3758 59.15 11.4169 59.15C11.7454 59.15 12.0534 59.0891 12.3614 58.9675C12.6489 58.8458 12.9159 58.6836 13.1212 58.4808C13.3265 58.278 13.5113 58.0144 13.6345 57.7508C13.7577 57.4669 13.8399 57.183 13.8399 56.8586C13.8399 56.8383 13.8399 56.818 13.8193 56.7978V56.7572V56.7167V56.6964V56.6761V56.6355V56.6153V56.595V56.5544C13.7988 56.5342 13.7988 56.5342 13.7988 56.5139C13.7988 56.453 13.7988 56.4328 13.7783 56.4125V56.3719V56.3517C13.7783 56.3314 13.7783 56.3314 13.7577 56.3314C13.7577 56.3314 13.7372 56.3314 13.7372 56.3111V56.2705L13.7167 56.2503V56.2097C13.7167 56.1894 13.7167 56.1894 13.6961 56.1692C13.6961 56.1489 13.6961 56.1286 13.6756 56.1286C13.6756 56.1286 13.6551 56.1083 13.6551 56.088C13.6345 56.088 13.6345 56.088 13.6345 56.0678C13.6345 56.0475 13.6345 56.0475 13.614 56.0475C13.614 56.0475 13.5935 56.0272 13.5935 56.0069C13.5729 56.0069 13.5729 56.0069 13.5729 55.9867V55.9664C13.5524 55.9664 13.5524 55.9664 13.5524 55.9461C13.5319 55.9258 13.5319 55.9258 13.5319 55.9055C13.5113 55.8853 13.5113 55.8853 13.5113 55.865C13.4908 55.8447 13.4908 55.8244 13.4703 55.8042C13.4497 55.7839 13.4497 55.7636 13.4292 55.7433L13.4087 55.723V55.7028L13.3676 55.6622L13.3471 55.6217L13.3265 55.5811L13.2649 55.5203L13.2239 55.4797C13.2239 55.4594 13.2239 55.4594 13.2033 55.4392L13.1623 55.3986L13.1212 55.358L13.1007 55.3175C13.0801 55.3175 13.0801 55.3175 13.0801 55.3175C13.0801 55.3175 13.0801 55.3175 13.0596 55.3175C13.0391 55.2972 13.0391 55.2972 13.0185 55.2769C13.0185 55.2567 12.998 55.2567 12.9569 55.2364L12.9364 55.2161L12.8953 55.1755C12.8748 55.1755 12.8748 55.1755 12.8748 55.1755C12.8748 55.1755 12.8748 55.1755 12.8543 55.1755L12.8132 55.135L12.7721 55.1147C12.7516 55.0944 12.7105 55.0742 12.69 55.0539L12.6489 55.0336C12.6489 55.0133 12.6284 55.0133 12.6078 55.0133V54.9525L12.5668 54.9322C12.5462 54.9322 12.5462 54.9322 12.5462 54.9322C12.5462 54.9322 12.5462 54.9322 12.5257 54.9322C12.5052 54.9119 12.4641 54.8917 12.4436 54.8917C12.382 54.8714 12.3614 54.8511 12.3409 54.8511C12.3204 54.8308 12.3204 54.8308 12.2998 54.8308C12.2793 54.8105 12.2793 54.8105 12.2588 54.8105C12.2382 54.7903 12.2382 54.7903 12.2177 54.7903H12.1972C12.1766 54.77 12.1766 54.77 12.1561 54.77C12.1356 54.7497 12.115 54.7497 12.0945 54.7497C12.0945 54.7497 12.074 54.7497 12.0329 54.7294C12.0124 54.7294 12.0124 54.7294 11.9918 54.7294C11.9713 54.7294 11.9713 54.7294 11.9508 54.7294H11.9097V54.7092H11.8686C11.6222 54.6483 11.2115 54.5469 10.6571 54.4455C10.1027 54.3239 9.4867 54.2225 8.82961 54.1008C8.72694 54.0805 8.60374 54.0603 8.50107 54.04C8.3984 54.0197 8.2752 53.9994 8.17253 53.9792C7.98772 53.9589 7.78238 53.9183 7.59758 53.8778C7.41277 53.8372 7.20743 53.7967 7.02263 53.7764C7.0021 53.7764 7.0021 53.7764 6.98156 53.7764C6.98156 53.7764 6.96103 53.7764 6.94049 53.7764C6.87889 53.7764 6.81729 53.7561 6.73516 53.7358H6.67355H6.63249C6.61195 53.7156 6.59142 53.7155 6.57088 53.7155C6.55035 53.7155 6.52982 53.7155 6.50928 53.7155C6.48875 53.7155 6.46822 53.7155 6.44768 53.7155C6.42715 53.7155 6.40661 53.7155 6.38608 53.6953H6.30394C6.16021 53.675 6.01647 53.6547 5.89327 53.6344C5.77006 53.6142 5.64686 53.5939 5.54419 53.5736C5.42099 53.5533 5.29778 53.533 5.19511 53.5128C5.09244 53.4925 5.01031 53.4925 4.92817 53.4722C4.84604 53.4519 4.78444 53.4519 4.72284 53.4317C4.31216 53.3303 3.92201 53.1681 3.59347 52.945C3.2444 52.7219 2.95692 52.4583 2.71052 52.1339C2.46411 51.8297 2.25877 51.485 2.11503 51.0997C1.9713 50.7144 1.88916 50.3089 1.88916 49.8831C1.88916 49.3761 1.99183 48.9097 2.19717 48.4636C2.40251 48.0175 2.66945 47.6322 3.01852 47.2875C3.3676 46.9631 3.75774 46.6995 4.23002 46.4967C4.7023 46.2939 5.19511 46.1925 5.729 46.1722H5.81113H11.3553H11.5812C12.074 46.1925 12.5462 46.3142 12.9775 46.4967C13.4087 46.6792 13.7783 46.9428 14.1068 47.247C14.4354 47.5511 14.7023 47.8958 14.9076 48.3014C15.113 48.707 15.2362 49.1328 15.2773 49.5789H13.7577C13.7167 49.3153 13.6345 49.072 13.4908 48.8286C13.3676 48.5853 13.2033 48.3825 12.998 48.2C12.7926 48.0175 12.5668 47.8756 12.3204 47.7742C12.074 47.6728 11.7865 47.612 11.499 47.5917H11.4374H11.3553H11.2526H5.9138H5.81113H5.729C5.42099 47.612 5.11298 47.6728 4.8255 47.7945C4.53803 47.9161 4.29162 48.0783 4.08629 48.2811C3.88095 48.4839 3.71668 48.7272 3.59347 49.0111C3.47027 49.295 3.40867 49.5789 3.40867 49.8831V49.9439V50.0047V50.0453V50.0858V50.1061V50.1467V50.1669L3.4292 50.1872V50.2278V50.2481V50.2886C3.44974 50.3089 3.44973 50.3089 3.44973 50.3292V50.3697V50.39L3.47027 50.4103V50.4508V50.4711L3.4908 50.4914V50.5319C3.51134 50.5522 3.51134 50.5522 3.51134 50.5725C3.51134 50.5928 3.51134 50.5928 3.53187 50.5928L3.5524 50.6131C3.57294 50.6333 3.57294 50.6536 3.59347 50.6739C3.59347 50.6942 3.61401 50.7144 3.63454 50.7347C3.63454 50.755 3.63454 50.7753 3.65507 50.7956C3.65507 50.8158 3.65507 50.8158 3.67561 50.8361C3.67561 50.8564 3.67561 50.8564 3.69614 50.8564L3.71668 50.8767L3.73721 50.9172C3.75774 50.9172 3.75774 50.9375 3.75774 50.9578H3.77828C3.77828 50.9781 3.77828 50.9983 3.79881 50.9983V51.0186L3.81934 51.0389L3.83988 51.0592V51.0794C3.86041 51.0997 3.86041 51.0997 3.86041 51.12H3.88095C3.88095 51.1403 3.88095 51.1606 3.90148 51.1606L3.94255 51.2011V51.2214L3.96308 51.2619L4.00415 51.3025L4.08629 51.3836L4.16842 51.485C4.18895 51.485 4.18895 51.485 4.18895 51.485C4.18895 51.485 4.18895 51.485 4.20949 51.485L4.25056 51.5256L4.29162 51.5661L4.33269 51.5864C4.33269 51.6067 4.33269 51.6067 4.35323 51.6067V51.6269C4.37376 51.6269 4.37376 51.6269 4.39429 51.6472L4.41483 51.6675H4.43536C4.43536 51.6878 4.43536 51.6878 4.4559 51.6878L4.47643 51.7081L4.49696 51.7283C4.5175 51.7283 4.5175 51.7283 4.53803 51.7486C4.55856 51.7486 4.55856 51.7486 4.55856 51.7486C4.55856 51.7486 4.55856 51.7486 4.5791 51.7486L4.8255 51.8906C4.84604 51.8906 4.88711 51.9108 4.90764 51.9311C4.92817 51.9311 4.94871 51.9311 4.96924 51.9514H5.01031L5.03084 51.9717H5.07191C5.09245 51.9919 5.09245 51.9919 5.11298 51.9919H5.13351C5.13351 52.0122 5.15405 52.0122 5.17458 52.0122C5.19511 52.0122 5.19511 52.0122 5.21565 52.0325H5.23618H5.27725L5.29778 52.0528H5.33885C5.35939 52.0528 5.37992 52.0528 5.40045 52.0731H5.44152C5.46205 52.0731 5.48259 52.0731 5.50312 52.0933H5.56472H5.60579H5.62633C5.64686 52.0933 5.729 52.1136 5.89327 52.1339C6.05754 52.1542 6.26288 52.1947 6.52982 52.2353C6.77622 52.2758 7.08423 52.3164 7.43331 52.3772C7.78238 52.4381 8.13146 52.4989 8.50107 52.5597C8.64481 52.58 8.72694 52.6003 8.78854 52.6206C9.44563 52.7219 10.1232 52.8436 10.7803 52.9856C11.4374 53.1275 11.9713 53.2086 12.4436 53.3506Z" stroke="white" stroke-width="2" stroke-miterlimit="10"/>
<path d="M31.499 54.0806H25.1335V60.6303H23.5935V46.0912H32.9775C33.5319 46.1317 34.0452 46.2534 34.5381 46.4967C35.0309 46.7198 35.4621 47.024 35.8112 47.389C36.1602 47.754 36.4477 48.1595 36.6736 48.6259C36.8789 49.0923 37.0021 49.579 37.0021 50.0859C37.0021 50.5928 36.8995 51.0592 36.7147 51.5256C36.5298 51.992 36.2424 52.3773 35.9138 52.7423C35.5648 53.087 35.1746 53.3912 34.7023 53.6345C34.2301 53.8778 33.7372 54.0198 33.2034 54.1009H31.499V54.0806ZM32.9364 52.6814C33.2855 52.6409 33.614 52.5395 33.922 52.3976C34.2301 52.2353 34.497 52.0528 34.7229 51.8298C34.9487 51.6067 35.113 51.3431 35.2567 51.0389C35.38 50.7348 35.4621 50.4306 35.4621 50.0859C35.4621 49.7412 35.4005 49.4167 35.2567 49.1126C35.113 48.8084 34.9282 48.5448 34.6818 48.3015C34.4354 48.0784 34.1479 47.8756 33.8194 47.754C33.4908 47.612 33.1418 47.5309 32.7722 47.5106H25.1541V52.6814H32.9364V52.6814Z" stroke="white" stroke-width="2" stroke-miterlimit="10"/>
<path d="M63.1621 60.6303H61.4989L58.542 55.1554H50.0615L47.1046 60.6303H45.4414L53.388 45.8682H53.4086H53.9014H54.2915H54.6817H55.1539H55.1745L63.1621 60.6303ZM50.8213 53.6954H57.7617L54.312 47.2876H54.2915L50.8213 53.6954Z" stroke="white" stroke-width="2" stroke-miterlimit="10"/>
<path d="M73.9836 59.15H76.2423V60.5897H70.3901V59.15H72.6489V47.5309H70.3901V46.1115H76.2423V47.5309H73.9836V59.15Z" stroke="white" stroke-width="2" stroke-miterlimit="10"/>
<path d="M99.4457 60.6709H97.9467L86.0371 48.1798V60.6709H84.5381V46.0709H86.0371L97.9672 58.562V46.0709H99.4662V60.6709H99.4457Z" stroke="white" stroke-width="2" stroke-miterlimit="10"/>
<path d="M13.347 84.5783H11.848V77.8056H1.90962V84.5783H0.410645V69.9784H1.90962V76.3659H11.8686V69.9784H13.347V84.5783Z" fill="white"/>
<path d="M29.8357 69.9987C30.9035 69.9987 31.8891 70.1812 32.8337 70.5664C33.7782 70.9517 34.5996 71.4789 35.2772 72.1278C35.9754 72.7767 36.5298 73.5473 36.9404 74.4395C37.3511 75.3114 37.5565 76.2645 37.5565 77.2784C37.5565 78.2922 37.3511 79.225 36.9404 80.1172C36.5298 80.9892 35.9754 81.7597 35.2772 82.4289C34.5791 83.0778 33.7577 83.605 32.8337 83.9903C31.8891 84.3756 30.9035 84.5581 29.8357 84.5581C28.768 84.5581 27.7823 84.3756 26.8378 83.9903C25.9138 83.605 25.0924 83.0778 24.3943 82.4289C23.6961 81.78 23.1417 81.0095 22.731 80.1172C22.3203 79.2453 22.115 78.2922 22.115 77.2784C22.115 76.2645 22.3203 75.3317 22.731 74.4395C23.1417 73.5675 23.6961 72.797 24.3943 72.1278C25.0924 71.4789 25.9138 70.9517 26.8378 70.5664C27.7823 70.2014 28.7885 69.9987 29.8357 69.9987ZM29.8357 83.2197C30.6982 83.2197 31.5195 83.0575 32.2793 82.7534C33.039 82.4492 33.7166 82.0233 34.271 81.4759C34.846 80.9486 35.2772 80.32 35.6263 79.59C35.9548 78.86 36.1191 78.0895 36.1191 77.2784C36.1191 76.4673 35.9548 75.6967 35.6263 74.9667C35.2977 74.2367 34.846 73.6284 34.271 73.0809C33.6961 72.5536 33.039 72.1278 32.2793 71.8034C31.5195 71.4992 30.6982 71.337 29.8357 71.337C28.9733 71.337 28.1519 71.4992 27.3922 71.8034C26.6324 72.1075 25.9754 72.5334 25.4004 73.0809C24.8255 73.6081 24.3943 74.2367 24.0452 74.9667C23.6961 75.6967 23.5524 76.447 23.5524 77.2784C23.5524 78.0895 23.7166 78.86 24.0452 79.59C24.3737 80.32 24.8255 80.9486 25.4004 81.4759C25.9754 82.0031 26.6324 82.4289 27.3922 82.7534C28.1519 83.0575 28.9733 83.2197 29.8357 83.2197Z" fill="white"/>
<path d="M59.4455 69.9987V78.2922C59.4455 79.1439 59.2607 79.955 58.9117 80.7256C58.5626 81.4961 58.0903 82.145 57.4743 82.7128C56.8583 83.2806 56.1601 83.7267 55.3388 84.0511C54.5174 84.3756 53.655 84.5378 52.731 84.5378C51.7864 84.5378 50.924 84.3756 50.1026 84.0511C49.2813 83.7267 48.5831 83.2806 47.9671 82.7128C47.3511 82.145 46.8788 81.4759 46.5297 80.7256C46.1807 79.955 45.9958 79.1439 45.9958 78.2922V69.9987H47.4743V77.8259C47.4948 77.907 47.4948 77.9881 47.4948 78.0692C47.4948 78.1503 47.4948 78.2314 47.4948 78.3125C47.5154 78.9817 47.6591 79.6103 47.926 80.2186C48.193 80.8067 48.5626 81.3136 49.0349 81.7597C49.5071 82.2059 50.0616 82.5506 50.6776 82.7939C51.3141 83.0575 51.9917 83.1792 52.7104 83.1792C53.4291 83.1792 54.1067 83.0575 54.7433 82.7939C55.3798 82.5303 55.9342 82.1856 56.4271 81.7597C56.9199 81.3339 57.2689 80.8067 57.5564 80.2186C57.8234 79.6306 57.9671 79.002 57.9671 78.3125V77.9678V77.8259V69.9987H59.4455Z" fill="white"/>
<path d="M78.4189 77.2783C78.8295 77.4 79.2197 77.5622 79.5482 77.7852C79.8973 78.0083 80.1848 78.2719 80.4312 78.5963C80.6776 78.9005 80.8829 79.2452 81.0267 79.6305C81.1704 80.0158 81.2525 80.4011 81.2525 80.8269C81.2525 81.3338 81.1499 81.8205 80.9445 82.2666C80.7392 82.7127 80.4517 83.1183 80.1026 83.4427C79.7536 83.7874 79.3429 84.0511 78.8706 84.2336C78.3983 84.4161 77.885 84.5174 77.3511 84.5174H71.807H71.7248C71.1909 84.4972 70.6981 84.3958 70.2464 84.2133C69.7741 84.0308 69.384 83.7672 69.0349 83.4224C68.6858 83.098 68.4189 82.7127 68.2135 82.2666C68.0082 81.8205 67.9055 81.3541 67.9055 80.8472H69.425C69.425 81.1513 69.4866 81.4352 69.6304 81.7191C69.7536 81.9827 69.9384 82.2261 70.1437 82.4288C70.349 82.6316 70.616 82.7938 70.9035 82.9155C71.1909 83.0372 71.4989 83.098 71.8275 83.098H77.269V83.0777C77.2895 83.0777 77.31 83.0777 77.3306 83.0777C77.3306 83.0777 77.3511 83.0777 77.3922 83.0777C77.7207 83.0777 78.0287 83.0169 78.3367 82.8952C78.6242 82.7736 78.8911 82.6113 79.0965 82.4086C79.3018 82.2058 79.4866 81.9422 79.6098 81.6786C79.733 81.3947 79.8152 81.1108 79.8152 80.7863C79.8152 80.7661 79.8152 80.7458 79.7946 80.7255V80.6849V80.6444V80.6241V80.6038V80.5633V80.543V80.5227V80.4822C79.7741 80.4619 79.7741 80.4619 79.7741 80.4416C79.7741 80.3808 79.7741 80.3605 79.7536 80.3402V80.2997V80.2794C79.7536 80.2591 79.7536 80.2591 79.733 80.2591C79.733 80.2591 79.733 80.2591 79.733 80.2388V80.1983L79.7125 80.178V80.1375C79.7125 80.1172 79.7125 80.1172 79.692 80.0969C79.692 80.0766 79.692 80.0563 79.692 80.0563C79.692 80.0563 79.692 80.0361 79.692 80.0158C79.6714 80.0158 79.6714 80.0158 79.6714 79.9955C79.6714 79.9752 79.6714 79.9752 79.6509 79.9752C79.6509 79.9752 79.6509 79.955 79.6509 79.9347C79.6304 79.9347 79.6304 79.9347 79.6304 79.9144V79.8941C79.6098 79.8738 79.6098 79.8738 79.6098 79.8536C79.5893 79.8333 79.5893 79.8333 79.5893 79.813C79.5688 79.7927 79.5688 79.7927 79.5688 79.7725C79.5482 79.7522 79.5482 79.7319 79.5277 79.7116C79.5071 79.6913 79.5072 79.6711 79.4866 79.6508L79.4661 79.6305V79.6102L79.425 79.5697L79.4045 79.5291L79.3839 79.4886L79.3223 79.4277L79.2813 79.3872C79.2813 79.3669 79.2813 79.3669 79.2607 79.3466L79.2197 79.3061L79.1786 79.2655L79.1581 79.225C79.1375 79.225 79.1375 79.225 79.1375 79.225C79.1375 79.225 79.1375 79.225 79.117 79.225C79.0965 79.2047 79.0965 79.2047 79.0759 79.1844C79.0759 79.1641 79.0554 79.1641 79.0143 79.1438L78.9938 79.1236L78.9527 79.083C78.9322 79.083 78.9322 79.083 78.9322 79.083C78.9322 79.083 78.9322 79.083 78.9117 79.083L78.8706 79.0425L78.8295 79.0222C78.809 79.0019 78.7679 78.9816 78.7474 78.9613L78.7063 78.9411C78.7063 78.9208 78.6858 78.9208 78.6653 78.9208V78.8802L78.6242 78.86C78.6037 78.86 78.6037 78.86 78.6037 78.86C78.6037 78.86 78.6037 78.86 78.5831 78.86C78.5626 78.8397 78.5215 78.8194 78.501 78.8194C78.4394 78.7991 78.4189 78.7788 78.3983 78.7788C78.3778 78.7586 78.3778 78.7586 78.3573 78.7586C78.3367 78.7383 78.3367 78.7383 78.3162 78.7383C78.2957 78.718 78.2957 78.718 78.2751 78.718H78.2546C78.2341 78.6977 78.2341 78.6977 78.2135 78.6977C78.193 78.6775 78.1725 78.6775 78.1519 78.6775C78.1519 78.6775 78.1314 78.6775 78.0903 78.6572C78.0698 78.6572 78.0698 78.6572 78.0492 78.6572C78.0287 78.6572 78.0287 78.6572 78.0082 78.6572H77.9466V78.6369H77.9055C77.6591 78.5761 77.2484 78.4747 76.694 78.3733C76.1396 78.2516 75.5236 78.1502 74.8665 78.0286C74.7638 78.0083 74.6406 77.988 74.538 77.9677C74.4353 77.9475 74.3121 77.9272 74.2094 77.9069C74.0246 77.8866 73.8193 77.8461 73.6345 77.8055C73.4497 77.765 73.2443 77.7244 73.0595 77.7041C73.039 77.7041 73.039 77.7041 73.0184 77.7041C73.0184 77.7041 72.9979 77.7041 72.9774 77.7041C72.9158 77.7041 72.8542 77.6838 72.772 77.6636H72.7104H72.6694C72.6488 77.6433 72.6283 77.6433 72.6078 77.6433C72.5872 77.6433 72.5667 77.6433 72.5462 77.6433C72.5256 77.6433 72.5051 77.6433 72.4846 77.6433C72.464 77.6433 72.4435 77.6433 72.423 77.623H72.3408C72.1971 77.6027 72.0534 77.5825 71.9302 77.5622C71.8069 77.5419 71.6837 77.5216 71.5811 77.5013C71.4579 77.4811 71.3347 77.4608 71.232 77.4405C71.1293 77.4202 71.0472 77.4202 70.9651 77.4C70.8829 77.3797 70.8213 77.3797 70.7597 77.3594C70.349 77.258 69.9589 77.0958 69.6304 76.8727C69.2813 76.6497 68.9938 76.3861 68.7474 76.0616C68.501 75.7575 68.2957 75.4127 68.1519 75.0275C68.0082 74.6422 67.926 74.2366 67.926 73.8108C67.926 73.3039 68.0287 72.8375 68.2341 72.3914C68.4394 71.9452 68.7063 71.56 69.0554 71.2153C69.4045 70.8908 69.7946 70.6272 70.2669 70.4244C70.7392 70.2216 71.232 70.1203 71.7659 70.1H71.848H77.3922H77.618C78.1108 70.1203 78.5831 70.2419 79.0143 70.4244C79.4455 70.6069 79.8152 70.8705 80.1437 71.1747C80.4722 71.4789 80.7392 71.8236 80.9445 72.2291C81.1499 72.6347 81.2731 73.0605 81.3141 73.5066H79.7946C79.7536 73.243 79.6714 72.9997 79.5277 72.7564C79.4045 72.513 79.2402 72.3102 79.0349 72.1277C78.8295 71.9452 78.6037 71.8033 78.3573 71.7019C78.1108 71.6005 77.8234 71.5397 77.5359 71.5194H77.4743H77.3922H77.2895H71.9507H71.848H71.7659C71.4579 71.5397 71.1499 71.6005 70.8624 71.7222C70.5749 71.8439 70.3285 72.0061 70.1232 72.2089C69.9178 72.4116 69.7536 72.655 69.6304 72.9389C69.5072 73.2227 69.4456 73.5066 69.4456 73.8108V73.8716V73.9325V73.973V74.0136V74.0339V74.0744V74.0947L69.4661 74.115V74.1555V74.1758V74.2164C69.4866 74.2366 69.4866 74.2366 69.4866 74.2569V74.2975V74.3177L69.5072 74.338V74.3786V74.3989L69.5277 74.4191V74.4597C69.5482 74.48 69.5482 74.48 69.5482 74.5002C69.5482 74.5205 69.5482 74.5205 69.5482 74.5205L69.5688 74.5408C69.5893 74.5611 69.5893 74.5814 69.6098 74.6016C69.6098 74.6219 69.6304 74.6422 69.6509 74.6625C69.6509 74.6827 69.6509 74.703 69.6714 74.7233C69.6714 74.7436 69.6714 74.7436 69.692 74.7639C69.692 74.7841 69.692 74.7841 69.7125 74.7841L69.733 74.8044L69.7536 74.845C69.7741 74.845 69.7741 74.8652 69.7741 74.8855H69.7946C69.7946 74.9058 69.7946 74.9261 69.8152 74.9261V74.9464L69.8357 74.9666L69.8562 74.9869V75.0072C69.8768 75.0275 69.8768 75.0275 69.8768 75.0477H69.8973C69.8973 75.068 69.8973 75.0883 69.9178 75.0883L69.9589 75.1289V75.1491L69.9794 75.1897L70.0205 75.2302L70.1026 75.3113L70.1848 75.4127C70.2053 75.4127 70.2053 75.4127 70.2053 75.4127C70.2053 75.4127 70.2053 75.4127 70.2258 75.4127L70.2669 75.4533L70.308 75.4938L70.349 75.5141C70.349 75.5344 70.349 75.5344 70.3696 75.5344V75.5547C70.3901 75.5547 70.3901 75.5547 70.4106 75.575L70.4312 75.5952H70.4517C70.4517 75.6155 70.4517 75.6155 70.4723 75.6155L70.4928 75.6358L70.5133 75.6561C70.5338 75.6561 70.5339 75.6561 70.5544 75.6764C70.5749 75.6764 70.5749 75.6764 70.5749 75.6764C70.5749 75.6764 70.5749 75.6764 70.5954 75.6764L70.8419 75.8183C70.8624 75.8183 70.9035 75.8386 70.924 75.8589C70.9445 75.8589 70.9651 75.8589 70.9856 75.8791H71.0267L71.0472 75.8994H71.0883C71.1088 75.9197 71.1088 75.9197 71.1293 75.9197H71.1499C71.1499 75.94 71.1704 75.94 71.1909 75.94C71.2115 75.94 71.2115 75.94 71.232 75.9602H71.2525H71.2936L71.3141 75.9805H71.3552C71.3757 75.9805 71.3963 75.9805 71.4168 76.0008H71.4579C71.4784 76.0008 71.4989 76.0008 71.5195 76.0211H71.5811H71.6221H71.6427C71.6632 76.0211 71.7454 76.0414 71.9096 76.0616C72.0739 76.0819 72.2792 76.1225 72.5462 76.163C72.7926 76.2036 73.1006 76.2441 73.4497 76.305C73.7987 76.3658 74.1478 76.4266 74.5174 76.4875C74.6612 76.5077 74.7433 76.528 74.8049 76.5483C75.462 76.6497 76.1396 76.7713 76.7967 76.9133C77.3922 76.9944 77.9466 77.1363 78.4189 77.2783Z" fill="white"/>
<path d="M101.355 84.5783H89.5688V69.9987H101.355V71.4181H91.0473V76.3861H101.355V77.8056H91.0473V83.1792H101.355V84.5783Z" fill="white"/>
<path d="M13.347 84.5783H11.848V77.8056H1.90962V84.5783H0.410645V69.9784H1.90962V76.3659H11.8686V69.9784H13.347V84.5783Z" stroke="white" stroke-width="2" stroke-miterlimit="10"/>
<path d="M29.8357 69.9987C30.9035 69.9987 31.8891 70.1812 32.8337 70.5664C33.7782 70.9517 34.5996 71.4789 35.2772 72.1278C35.9754 72.7767 36.5298 73.5473 36.9404 74.4395C37.3511 75.3114 37.5565 76.2645 37.5565 77.2784C37.5565 78.2922 37.3511 79.225 36.9404 80.1172C36.5298 80.9892 35.9754 81.7597 35.2772 82.4289C34.5791 83.0778 33.7577 83.605 32.8337 83.9903C31.8891 84.3756 30.9035 84.5581 29.8357 84.5581C28.768 84.5581 27.7823 84.3756 26.8378 83.9903C25.9138 83.605 25.0924 83.0778 24.3943 82.4289C23.6961 81.78 23.1417 81.0095 22.731 80.1172C22.3203 79.2453 22.115 78.2922 22.115 77.2784C22.115 76.2645 22.3203 75.3317 22.731 74.4395C23.1417 73.5675 23.6961 72.797 24.3943 72.1278C25.0924 71.4789 25.9138 70.9517 26.8378 70.5664C27.7823 70.2014 28.7885 69.9987 29.8357 69.9987ZM29.8357 83.2197C30.6982 83.2197 31.5195 83.0575 32.2793 82.7534C33.039 82.4492 33.7166 82.0233 34.271 81.4758C34.846 80.9486 35.2772 80.32 35.6263 79.59C35.9548 78.86 36.1191 78.0895 36.1191 77.2784C36.1191 76.4673 35.9548 75.6967 35.6263 74.9667C35.2977 74.2367 34.846 73.6284 34.271 73.0809C33.6961 72.5536 33.039 72.1278 32.2793 71.8034C31.5195 71.4992 30.6982 71.337 29.8357 71.337C28.9733 71.337 28.1519 71.4992 27.3922 71.8034C26.6324 72.1075 25.9754 72.5334 25.4004 73.0809C24.8255 73.6081 24.3943 74.2367 24.0452 74.9667C23.6961 75.6967 23.5524 76.447 23.5524 77.2784C23.5524 78.0895 23.7166 78.86 24.0452 79.59C24.3737 80.32 24.8255 80.9486 25.4004 81.4758C25.9754 82.0031 26.6324 82.4289 27.3922 82.7534C28.1519 83.0575 28.9733 83.2197 29.8357 83.2197Z" stroke="white" stroke-width="2" stroke-miterlimit="10"/>
<path d="M59.4455 69.9987V78.2922C59.4455 79.1439 59.2607 79.955 58.9117 80.7256C58.5626 81.4961 58.0903 82.145 57.4743 82.7128C56.8583 83.2806 56.1601 83.7267 55.3388 84.0511C54.5174 84.3756 53.655 84.5378 52.731 84.5378C51.7864 84.5378 50.924 84.3756 50.1026 84.0511C49.2813 83.7267 48.5831 83.2806 47.9671 82.7128C47.3511 82.145 46.8788 81.4759 46.5297 80.7256C46.1807 79.955 45.9958 79.1439 45.9958 78.2922V69.9987H47.4743V77.8259C47.4948 77.907 47.4948 77.9881 47.4948 78.0692C47.4948 78.1503 47.4948 78.2314 47.4948 78.3125C47.5154 78.9817 47.6591 79.6103 47.926 80.2186C48.193 80.8067 48.5626 81.3136 49.0349 81.7597C49.5071 82.2059 50.0616 82.5506 50.6776 82.7939C51.3141 83.0575 51.9917 83.1792 52.7104 83.1792C53.4291 83.1792 54.1067 83.0575 54.7433 82.7939C55.3798 82.5303 55.9342 82.1856 56.4271 81.7597C56.9199 81.3339 57.2689 80.8067 57.5564 80.2186C57.8234 79.6306 57.9671 79.002 57.9671 78.3125V77.9678V77.8259V69.9987H59.4455Z" stroke="white" stroke-width="2" stroke-miterlimit="10"/>
<path d="M78.4189 77.2783C78.8295 77.4 79.2197 77.5622 79.5482 77.7852C79.8973 78.0083 80.1848 78.2719 80.4312 78.5963C80.6776 78.9005 80.8829 79.2452 81.0267 79.6305C81.1704 80.0158 81.2525 80.4011 81.2525 80.8269C81.2525 81.3338 81.1499 81.8205 80.9445 82.2666C80.7392 82.7127 80.4517 83.1183 80.1026 83.4427C79.7536 83.7874 79.3429 84.0511 78.8706 84.2336C78.3983 84.4161 77.885 84.5174 77.3511 84.5174H71.807H71.7248C71.1909 84.4972 70.6981 84.3958 70.2464 84.2133C69.7741 84.0308 69.384 83.7672 69.0349 83.4224C68.6858 83.098 68.4189 82.7127 68.2135 82.2666C68.0082 81.8205 67.9055 81.3541 67.9055 80.8472H69.425C69.425 81.1513 69.4866 81.4352 69.6304 81.7191C69.7536 81.9827 69.9384 82.2261 70.1437 82.4288C70.349 82.6316 70.616 82.7938 70.9035 82.9155C71.1909 83.0372 71.4989 83.098 71.8275 83.098H77.269V83.0777C77.2895 83.0777 77.31 83.0777 77.3306 83.0777C77.3306 83.0777 77.3511 83.0777 77.3922 83.0777C77.7207 83.0777 78.0287 83.0169 78.3367 82.8952C78.6242 82.7736 78.8911 82.6113 79.0965 82.4086C79.3018 82.2058 79.4866 81.9422 79.6098 81.6786C79.733 81.3947 79.8152 81.1108 79.8152 80.7863C79.8152 80.7661 79.8152 80.7458 79.7946 80.7255V80.6849V80.6444V80.6241V80.6038V80.5633V80.543V80.5227V80.4822C79.7741 80.4619 79.7741 80.4619 79.7741 80.4416C79.7741 80.3808 79.7741 80.3605 79.7536 80.3402V80.2997V80.2794C79.7536 80.2591 79.7536 80.2591 79.733 80.2591C79.733 80.2591 79.733 80.2591 79.733 80.2388V80.1983L79.7125 80.178V80.1375C79.7125 80.1172 79.7125 80.1172 79.692 80.0969C79.692 80.0766 79.692 80.0563 79.692 80.0563C79.692 80.0563 79.692 80.0361 79.692 80.0158C79.6714 80.0158 79.6714 80.0158 79.6714 79.9955C79.6714 79.9752 79.6714 79.9752 79.6509 79.9752C79.6509 79.9752 79.6509 79.955 79.6509 79.9347C79.6304 79.9347 79.6304 79.9347 79.6304 79.9144V79.8941C79.6098 79.8738 79.6098 79.8738 79.6098 79.8536C79.5893 79.8333 79.5893 79.8333 79.5893 79.813C79.5688 79.7927 79.5688 79.7927 79.5688 79.7725C79.5482 79.7522 79.5482 79.7319 79.5277 79.7116C79.5071 79.6913 79.5072 79.6711 79.4866 79.6508L79.4661 79.6305V79.6102L79.425 79.5697L79.4045 79.5291L79.3839 79.4886L79.3223 79.4277L79.2813 79.3872C79.2813 79.3669 79.2813 79.3669 79.2607 79.3466L79.2197 79.3061L79.1786 79.2655L79.1581 79.225C79.1375 79.225 79.1375 79.225 79.1375 79.225C79.1375 79.225 79.1375 79.225 79.117 79.225C79.0965 79.2047 79.0965 79.2047 79.0759 79.1844C79.0759 79.1641 79.0554 79.1641 79.0143 79.1438L78.9938 79.1236L78.9527 79.083C78.9322 79.083 78.9322 79.083 78.9322 79.083C78.9322 79.083 78.9322 79.083 78.9117 79.083L78.8706 79.0425L78.8295 79.0222C78.809 79.0019 78.7679 78.9816 78.7474 78.9613L78.7063 78.9411C78.7063 78.9208 78.6858 78.9208 78.6653 78.9208V78.8802L78.6242 78.86C78.6037 78.86 78.6037 78.86 78.6037 78.86C78.6037 78.86 78.6037 78.86 78.5831 78.86C78.5626 78.8397 78.5215 78.8194 78.501 78.8194C78.4394 78.7991 78.4189 78.7788 78.3983 78.7788C78.3778 78.7586 78.3778 78.7586 78.3573 78.7586C78.3367 78.7383 78.3367 78.7383 78.3162 78.7383C78.2957 78.718 78.2957 78.718 78.2751 78.718H78.2546C78.2341 78.6977 78.2341 78.6977 78.2135 78.6977C78.193 78.6775 78.1725 78.6775 78.1519 78.6775C78.1519 78.6775 78.1314 78.6775 78.0903 78.6572C78.0698 78.6572 78.0698 78.6572 78.0492 78.6572C78.0287 78.6572 78.0287 78.6572 78.0082 78.6572H77.9466V78.6369H77.9055C77.6591 78.5761 77.2484 78.4747 76.694 78.3733C76.1396 78.2516 75.5236 78.1502 74.8665 78.0286C74.7638 78.0083 74.6406 77.988 74.538 77.9677C74.4353 77.9475 74.3121 77.9272 74.2094 77.9069C74.0246 77.8866 73.8193 77.8461 73.6345 77.8055C73.4497 77.765 73.2443 77.7244 73.0595 77.7041C73.039 77.7041 73.039 77.7041 73.0184 77.7041C73.0184 77.7041 72.9979 77.7041 72.9774 77.7041C72.9158 77.7041 72.8542 77.6838 72.772 77.6636H72.7104H72.6694C72.6488 77.6433 72.6283 77.6433 72.6078 77.6433C72.5872 77.6433 72.5667 77.6433 72.5462 77.6433C72.5256 77.6433 72.5051 77.6433 72.4846 77.6433C72.464 77.6433 72.4435 77.6433 72.423 77.623H72.3408C72.1971 77.6027 72.0534 77.5825 71.9302 77.5622C71.8069 77.5419 71.6837 77.5216 71.5811 77.5013C71.4579 77.4811 71.3347 77.4608 71.232 77.4405C71.1293 77.4202 71.0472 77.4202 70.9651 77.4C70.8829 77.3797 70.8213 77.3797 70.7597 77.3594C70.349 77.258 69.9589 77.0958 69.6304 76.8727C69.2813 76.6497 68.9938 76.3861 68.7474 76.0616C68.501 75.7575 68.2957 75.4127 68.1519 75.0275C68.0082 74.6422 67.926 74.2366 67.926 73.8108C67.926 73.3039 68.0287 72.8375 68.2341 72.3914C68.4394 71.9452 68.7063 71.56 69.0554 71.2153C69.4045 70.8908 69.7946 70.6272 70.2669 70.4244C70.7392 70.2216 71.232 70.1203 71.7659 70.1H71.848H77.3922H77.618C78.1108 70.1203 78.5831 70.2419 79.0143 70.4244C79.4455 70.6069 79.8152 70.8705 80.1437 71.1747C80.4722 71.4789 80.7392 71.8236 80.9445 72.2291C81.1499 72.6347 81.2731 73.0605 81.3141 73.5066H79.7946C79.7536 73.243 79.6714 72.9997 79.5277 72.7564C79.4045 72.513 79.2402 72.3102 79.0349 72.1277C78.8295 71.9452 78.6037 71.8033 78.3573 71.7019C78.1108 71.6005 77.8234 71.5397 77.5359 71.5194H77.4743H77.3922H77.2895H71.9507H71.848H71.7659C71.4579 71.5397 71.1499 71.6005 70.8624 71.7222C70.5749 71.8439 70.3285 72.0061 70.1232 72.2089C69.9178 72.4116 69.7536 72.655 69.6304 72.9389C69.5072 73.2227 69.4456 73.5066 69.4456 73.8108V73.8716V73.9325V73.973V74.0136V74.0339V74.0744V74.0947L69.4661 74.115V74.1555V74.1758V74.2164C69.4866 74.2366 69.4866 74.2366 69.4866 74.2569V74.2975V74.3177L69.5072 74.338V74.3786V74.3989L69.5277 74.4191V74.4597C69.5482 74.48 69.5482 74.48 69.5482 74.5002C69.5482 74.5205 69.5482 74.5205 69.5482 74.5205L69.5688 74.5408C69.5893 74.5611 69.5893 74.5814 69.6098 74.6016C69.6098 74.6219 69.6304 74.6422 69.6509 74.6625C69.6509 74.6827 69.6509 74.703 69.6714 74.7233C69.6714 74.7436 69.6714 74.7436 69.692 74.7639C69.692 74.7841 69.692 74.7841 69.7125 74.7841L69.733 74.8044L69.7536 74.845C69.7741 74.845 69.7741 74.8652 69.7741 74.8855H69.7946C69.7946 74.9058 69.7946 74.9261 69.8152 74.9261V74.9464L69.8357 74.9666L69.8562 74.9869V75.0072C69.8768 75.0275 69.8768 75.0275 69.8768 75.0477H69.8973C69.8973 75.068 69.8973 75.0883 69.9178 75.0883L69.9589 75.1289V75.1491L69.9794 75.1897L70.0205 75.2302L70.1026 75.3113L70.1848 75.4127C70.2053 75.4127 70.2053 75.4127 70.2053 75.4127C70.2053 75.4127 70.2053 75.4127 70.2258 75.4127L70.2669 75.4533L70.308 75.4938L70.349 75.5141C70.349 75.5344 70.349 75.5344 70.3696 75.5344V75.5547C70.3901 75.5547 70.3901 75.5547 70.4106 75.575L70.4312 75.5952H70.4517C70.4517 75.6155 70.4517 75.6155 70.4723 75.6155L70.4928 75.6358L70.5133 75.6561C70.5338 75.6561 70.5339 75.6561 70.5544 75.6764C70.5749 75.6764 70.5749 75.6764 70.5749 75.6764C70.5749 75.6764 70.5749 75.6764 70.5954 75.6764L70.8419 75.8183C70.8624 75.8183 70.9035 75.8386 70.924 75.8589C70.9445 75.8589 70.9651 75.8589 70.9856 75.8791H71.0267L71.0472 75.8994H71.0883C71.1088 75.9197 71.1088 75.9197 71.1293 75.9197H71.1499C71.1499 75.94 71.1704 75.94 71.1909 75.94C71.2115 75.94 71.2115 75.94 71.232 75.9602H71.2525H71.2936L71.3141 75.9805H71.3552C71.3757 75.9805 71.3963 75.9805 71.4168 76.0008H71.4579C71.4784 76.0008 71.4989 76.0008 71.5195 76.0211H71.5811H71.6221H71.6427C71.6632 76.0211 71.7454 76.0414 71.9096 76.0616C72.0739 76.0819 72.2792 76.1225 72.5462 76.163C72.7926 76.2036 73.1006 76.2441 73.4497 76.305C73.7987 76.3658 74.1478 76.4266 74.5174 76.4875C74.6612 76.5077 74.7433 76.528 74.8049 76.5483C75.462 76.6497 76.1396 76.7713 76.7967 76.9133C77.3922 76.9944 77.9466 77.1363 78.4189 77.2783Z" stroke="white" stroke-width="2" stroke-miterlimit="10"/>
<path d="M101.355 84.5783H89.5688V69.9987H101.355V71.4181H91.0473V76.3861H101.355V77.8056H91.0473V83.1792H101.355V84.5783Z" stroke="white" stroke-width="2" stroke-miterlimit="10"/>
<path d="M100.103 64.9292H1.12939V65.9431H100.103V64.9292Z" fill="white"/>
</g>
<defs>
<clipPath id="clip0_141_589">
<rect width="110" height="92" fill="white"/>
</clipPath>
</defs>
</svg>
