<svg width="33" height="33" viewBox="0 0 33 33" fill="none" xmlns="http://www.w3.org/2000/svg">
<path d="M31.625 15.1535H1.375C0.615997 15.1535 0 15.7695 0 16.5285C0 17.2875 0.615997 17.9035 1.375 17.9035H31.625C32.384 17.9035 33 17.2875 33 16.5285C33 15.7695 32.384 15.1535 31.625 15.1535Z" fill="white"/>
<path d="M31.625 25.6953H1.375C0.615997 25.6953 0 26.3113 0 27.0703C0 27.8293 0.615997 28.4453 1.375 28.4453H31.625C32.384 28.4453 33 27.8293 33 27.0703C33 26.3113 32.384 25.6953 31.625 25.6953Z" fill="white"/>
<path d="M31.625 4.61209H1.375C0.615997 4.61209 0 5.22809 0 5.98709C0 6.74609 0.615997 7.36209 1.375 7.36209H31.625C32.384 7.36209 33 6.74609 33 5.98709C33 5.22809 32.384 4.61209 31.625 4.61209Z" fill="white"/>
</svg>
