<svg width="18" height="18" viewBox="0 0 18 18" fill="none" xmlns="http://www.w3.org/2000/svg">
<g clip-path="url(#clip0_192_83)">
<path d="M17.51 13.2102L14.998 10.6982C14.1009 9.80111 12.5758 10.16 12.2169 11.3262C11.9478 12.1337 11.0507 12.5822 10.2433 12.4028C8.44901 11.9542 6.02677 9.62168 5.57821 7.73772C5.30907 6.93027 5.84735 6.03314 6.65476 5.76404C7.82102 5.40519 8.17988 3.88007 7.28275 2.98295L4.77079 0.470991C4.05309 -0.156997 2.97654 -0.156997 2.34855 0.470991L0.644013 2.17553C-1.06053 3.96978 0.823438 8.72455 5.03993 12.941C9.25643 17.1575 14.0112 19.1313 15.8054 17.337L17.51 15.6324C18.138 14.9147 18.138 13.8382 17.51 13.2102Z" fill="#808080"/>
</g>
<defs>
<clipPath id="clip0_192_83">
<rect width="18" height="18" fill="white"/>
</clipPath>
</defs>
</svg>
